<mxfile host="app.diagrams.net" agent="Mozilla/5.0 (X11; Linux x86_64) AppleWebKit/537.36 (KHTML, like Gecko) Chrome/130.0.0.0 Safari/537.36" version="28.2.1">
  <diagram name="Page-1" id="mvNXDzfvoAiriZ8f8rx1">
    <mxGraphModel dx="1450" dy="943" grid="1" gridSize="10" guides="1" tooltips="1" connect="1" arrows="1" fold="1" page="1" pageScale="1" pageWidth="4681" pageHeight="3300" math="0" shadow="0">
      <root>
        <mxCell id="0" />
        <mxCell id="1" parent="0" />
        <mxCell id="_-Ha9_vkT18k_ubbxbn1-1" value="R" style="swimlane;fontStyle=0;childLayout=stackLayout;horizontal=1;startSize=26;strokeColor=#DAEEF3;fillColor=none;strokeWidth=3;horizontalStack=0;resizeParent=1;resizeParentMax=0;resizeLast=0;collapsible=1;marginBottom=0;whiteSpace=wrap;html=1;" parent="1" vertex="1">
          <mxGeometry x="510" y="360" width="110" height="52" as="geometry" />
        </mxCell>
        <mxCell id="_-Ha9_vkT18k_ubbxbn1-2" value="Record Set" style="text;strokeColor=#DAEEF3;strokeWidth=3;fillColor=none;align=center;verticalAlign=top;spacingLeft=4;spacingRight=4;overflow=hidden;rotatable=0;points=[[0,0.5],[1,0.5]];portConstraint=eastwest;whiteSpace=wrap;html=1;" parent="_-Ha9_vkT18k_ubbxbn1-1" vertex="1">
          <mxGeometry y="26" width="110" height="26" as="geometry" />
        </mxCell>
        <mxCell id="_-Ha9_vkT18k_ubbxbn1-3" value="" style="endArrow=classic;html=1;rounded=0;entryX=1;entryY=0.5;entryDx=0;entryDy=0;" parent="1" target="_Zkpg5hdJGn9ATb1nhUD-1" edge="1">
          <mxGeometry relative="1" as="geometry">
            <mxPoint x="510" y="385" as="sourcePoint" />
            <mxPoint x="310.0000000000002" y="386" as="targetPoint" />
          </mxGeometry>
        </mxCell>
        <mxCell id="_-Ha9_vkT18k_ubbxbn1-4" value="record set type" style="edgeLabel;resizable=0;html=1;;align=center;verticalAlign=middle;" parent="_-Ha9_vkT18k_ubbxbn1-3" connectable="0" vertex="1">
          <mxGeometry relative="1" as="geometry" />
        </mxCell>
        <mxCell id="_-Ha9_vkT18k_ubbxbn1-7" value="" style="endArrow=classic;html=1;rounded=0;exitX=0.492;exitY=0.919;exitDx=0;exitDy=0;exitPerimeter=0;entryX=0.5;entryY=0;entryDx=0;entryDy=0;" parent="1" source="_-Ha9_vkT18k_ubbxbn1-2" target="_-Ha9_vkT18k_ubbxbn1-9" edge="1">
          <mxGeometry relative="1" as="geometry">
            <mxPoint x="440" y="530" as="sourcePoint" />
            <mxPoint x="565" y="540" as="targetPoint" />
          </mxGeometry>
        </mxCell>
        <mxCell id="_-Ha9_vkT18k_ubbxbn1-8" value="includes or included" style="edgeLabel;resizable=0;html=1;;align=center;verticalAlign=middle;" parent="_-Ha9_vkT18k_ubbxbn1-7" connectable="0" vertex="1">
          <mxGeometry relative="1" as="geometry" />
        </mxCell>
        <mxCell id="_-Ha9_vkT18k_ubbxbn1-9" value="F" style="swimlane;fontStyle=0;childLayout=stackLayout;horizontal=1;startSize=26;strokeColor=#DAEEF3;fillColor=none;strokeWidth=3;horizontalStack=0;resizeParent=1;resizeParentMax=0;resizeLast=0;collapsible=1;marginBottom=0;whiteSpace=wrap;html=1;" parent="1" vertex="1">
          <mxGeometry x="510" y="510" width="110" height="52" as="geometry" />
        </mxCell>
        <mxCell id="_-Ha9_vkT18k_ubbxbn1-10" value="Record Set" style="text;strokeColor=#DAEEF3;strokeWidth=3;fillColor=none;align=center;verticalAlign=top;spacingLeft=4;spacingRight=4;overflow=hidden;rotatable=0;points=[[0,0.5],[1,0.5]];portConstraint=eastwest;whiteSpace=wrap;html=1;" parent="_-Ha9_vkT18k_ubbxbn1-9" vertex="1">
          <mxGeometry y="26" width="110" height="26" as="geometry" />
        </mxCell>
        <mxCell id="_-Ha9_vkT18k_ubbxbn1-11" value="" style="endArrow=classic;html=1;rounded=0;exitX=-0.003;exitY=-0.076;exitDx=0;exitDy=0;exitPerimeter=0;entryX=1;entryY=0.5;entryDx=0;entryDy=0;" parent="1" source="_-Ha9_vkT18k_ubbxbn1-10" target="_Zkpg5hdJGn9ATb1nhUD-2" edge="1">
          <mxGeometry relative="1" as="geometry">
            <mxPoint x="500" y="535.31" as="sourcePoint" />
            <mxPoint x="310.0000000000002" y="535.2979999999998" as="targetPoint" />
          </mxGeometry>
        </mxCell>
        <mxCell id="_-Ha9_vkT18k_ubbxbn1-12" value="record set type" style="edgeLabel;resizable=0;html=1;;align=center;verticalAlign=middle;" parent="_-Ha9_vkT18k_ubbxbn1-11" connectable="0" vertex="1">
          <mxGeometry relative="1" as="geometry" />
        </mxCell>
        <mxCell id="_-Ha9_vkT18k_ubbxbn1-16" value="Appraisal" style="swimlane;fontStyle=0;childLayout=stackLayout;horizontal=1;startSize=26;strokeColor=#FFFAA0;strokeWidth=3;fillColor=none;horizontalStack=0;resizeParent=1;resizeParentMax=0;resizeLast=0;collapsible=1;marginBottom=0;whiteSpace=wrap;html=1;" parent="1" vertex="1">
          <mxGeometry x="820" y="120" width="90" height="52" as="geometry" />
        </mxCell>
        <mxCell id="_-Ha9_vkT18k_ubbxbn1-17" value="Activity" style="text;strokeColor=#FFFAA0;strokeWidth=3;fillColor=none;align=center;verticalAlign=top;spacingLeft=4;spacingRight=4;overflow=hidden;rotatable=0;points=[[0,0.5],[1,0.5]];portConstraint=eastwest;whiteSpace=wrap;html=1;" parent="_-Ha9_vkT18k_ubbxbn1-16" vertex="1">
          <mxGeometry y="26" width="90" height="26" as="geometry" />
        </mxCell>
        <mxCell id="_-Ha9_vkT18k_ubbxbn1-18" value="" style="endArrow=classic;html=1;rounded=0;exitX=1;exitY=0;exitDx=0;exitDy=0;entryX=0;entryY=0.154;entryDx=0;entryDy=0;entryPerimeter=0;" parent="1" source="_-Ha9_vkT18k_ubbxbn1-1" target="_-Ha9_vkT18k_ubbxbn1-21" edge="1">
          <mxGeometry relative="1" as="geometry">
            <mxPoint x="520" y="308.58" as="sourcePoint" />
            <mxPoint x="710" y="308.58" as="targetPoint" />
          </mxGeometry>
        </mxCell>
        <mxCell id="_-Ha9_vkT18k_ubbxbn1-19" value="is or was affected by" style="edgeLabel;resizable=0;html=1;;align=center;verticalAlign=middle;" parent="_-Ha9_vkT18k_ubbxbn1-18" connectable="0" vertex="1">
          <mxGeometry relative="1" as="geometry" />
        </mxCell>
        <mxCell id="_-Ha9_vkT18k_ubbxbn1-20" value="Appraisal of R" style="swimlane;fontStyle=0;childLayout=stackLayout;horizontal=1;startSize=26;strokeColor=#FFFAA0;strokeWidth=3;fillColor=none;horizontalStack=0;resizeParent=1;resizeParentMax=0;resizeLast=0;collapsible=1;marginBottom=0;whiteSpace=wrap;html=1;" parent="1" vertex="1">
          <mxGeometry x="820" y="290" width="90" height="52" as="geometry" />
        </mxCell>
        <mxCell id="_-Ha9_vkT18k_ubbxbn1-21" value="Activity" style="text;strokeColor=#FFFAA0;strokeWidth=3;fillColor=none;align=center;verticalAlign=top;spacingLeft=4;spacingRight=4;overflow=hidden;rotatable=0;points=[[0,0.5],[1,0.5]];portConstraint=eastwest;whiteSpace=wrap;html=1;" parent="_-Ha9_vkT18k_ubbxbn1-20" vertex="1">
          <mxGeometry y="26" width="90" height="26" as="geometry" />
        </mxCell>
        <mxCell id="_-Ha9_vkT18k_ubbxbn1-22" value="" style="endArrow=classic;html=1;rounded=0;entryX=0.5;entryY=1.195;entryDx=0;entryDy=0;entryPerimeter=0;exitX=0.5;exitY=0;exitDx=0;exitDy=0;" parent="1" source="_-Ha9_vkT18k_ubbxbn1-20" target="_-Ha9_vkT18k_ubbxbn1-17" edge="1">
          <mxGeometry relative="1" as="geometry">
            <mxPoint x="720" y="202" as="sourcePoint" />
            <mxPoint x="900" y="200" as="targetPoint" />
          </mxGeometry>
        </mxCell>
        <mxCell id="_-Ha9_vkT18k_ubbxbn1-23" value="is or was subevent of" style="edgeLabel;resizable=0;html=1;;align=center;verticalAlign=middle;" parent="_-Ha9_vkT18k_ubbxbn1-22" connectable="0" vertex="1">
          <mxGeometry relative="1" as="geometry" />
        </mxCell>
        <mxCell id="_-Ha9_vkT18k_ubbxbn1-26" value="10 years after end date of F" style="swimlane;fontStyle=0;childLayout=stackLayout;horizontal=1;startSize=26;strokeColor=#DDD9C3;strokeWidth=2;fillColor=none;horizontalStack=0;resizeParent=1;resizeParentMax=0;resizeLast=0;collapsible=1;marginBottom=0;whiteSpace=wrap;html=1;" parent="1" vertex="1">
          <mxGeometry x="1000" y="440" width="235" height="52" as="geometry" />
        </mxCell>
        <mxCell id="_-Ha9_vkT18k_ubbxbn1-27" value="Date" style="text;strokeColor=#DDD9C3;strokeWidth=2;fillColor=#DDD9C3;align=center;verticalAlign=top;spacingLeft=4;spacingRight=4;overflow=hidden;rotatable=0;points=[[0,0.5],[1,0.5]];portConstraint=eastwest;whiteSpace=wrap;html=1;" parent="_-Ha9_vkT18k_ubbxbn1-26" vertex="1">
          <mxGeometry y="26" width="235" height="26" as="geometry" />
        </mxCell>
        <mxCell id="_-Ha9_vkT18k_ubbxbn1-28" value="" style="endArrow=classic;html=1;rounded=0;entryX=-0.004;entryY=0.235;entryDx=0;entryDy=0;exitX=1.035;exitY=0.154;exitDx=0;exitDy=0;exitPerimeter=0;entryPerimeter=0;" parent="1" source="_-Ha9_vkT18k_ubbxbn1-10" target="_-Ha9_vkT18k_ubbxbn1-27" edge="1">
          <mxGeometry relative="1" as="geometry">
            <mxPoint x="630" y="386.0000000000002" as="sourcePoint" />
            <mxPoint x="800" y="386" as="targetPoint" />
          </mxGeometry>
        </mxCell>
        <mxCell id="_-Ha9_vkT18k_ubbxbn1-29" value="is date associated with" style="edgeLabel;resizable=0;html=1;;align=center;verticalAlign=middle;" parent="_-Ha9_vkT18k_ubbxbn1-28" connectable="0" vertex="1">
          <mxGeometry relative="1" as="geometry" />
        </mxCell>
        <mxCell id="_-Ha9_vkT18k_ubbxbn1-30" value="January 2020" style="swimlane;fontStyle=0;childLayout=stackLayout;horizontal=1;startSize=26;strokeColor=#DDD9C3;strokeWidth=2;fillColor=none;horizontalStack=0;resizeParent=1;resizeParentMax=0;resizeLast=0;collapsible=1;marginBottom=0;whiteSpace=wrap;html=1;" parent="1" vertex="1">
          <mxGeometry x="890" y="580" width="140" height="52" as="geometry" />
        </mxCell>
        <mxCell id="_-Ha9_vkT18k_ubbxbn1-31" value="Date" style="text;strokeColor=#DDD9C3;strokeWidth=2;fillColor=#DDD9C3;align=center;verticalAlign=top;spacingLeft=4;spacingRight=4;overflow=hidden;rotatable=0;points=[[0,0.5],[1,0.5]];portConstraint=eastwest;whiteSpace=wrap;html=1;" parent="_-Ha9_vkT18k_ubbxbn1-30" vertex="1">
          <mxGeometry y="26" width="140" height="26" as="geometry" />
        </mxCell>
        <mxCell id="_-Ha9_vkT18k_ubbxbn1-32" value="" style="endArrow=classic;html=1;rounded=0;entryX=0;entryY=0.5;entryDx=0;entryDy=0;" parent="1" target="_-Ha9_vkT18k_ubbxbn1-30" edge="1">
          <mxGeometry relative="1" as="geometry">
            <mxPoint x="620" y="552.0000000000002" as="sourcePoint" />
            <mxPoint x="760" y="552" as="targetPoint" />
          </mxGeometry>
        </mxCell>
        <mxCell id="_-Ha9_vkT18k_ubbxbn1-33" value="has end date" style="edgeLabel;resizable=0;html=1;;align=center;verticalAlign=middle;" parent="_-Ha9_vkT18k_ubbxbn1-32" connectable="0" vertex="1">
          <mxGeometry relative="1" as="geometry" />
        </mxCell>
        <mxCell id="_-Ha9_vkT18k_ubbxbn1-34" value="" style="endArrow=classic;html=1;rounded=0;entryX=0;entryY=0.5;entryDx=0;entryDy=0;exitX=1;exitY=0.5;exitDx=0;exitDy=0;" parent="1" source="_-Ha9_vkT18k_ubbxbn1-30" target="_-Ha9_vkT18k_ubbxbn1-36" edge="1">
          <mxGeometry relative="1" as="geometry">
            <mxPoint x="1070" y="606" as="sourcePoint" />
            <mxPoint x="1270" y="606" as="targetPoint" />
          </mxGeometry>
        </mxCell>
        <mxCell id="_-Ha9_vkT18k_ubbxbn1-35" value="normalized date value" style="edgeLabel;resizable=0;html=1;;align=center;verticalAlign=middle;" parent="_-Ha9_vkT18k_ubbxbn1-34" connectable="0" vertex="1">
          <mxGeometry relative="1" as="geometry" />
        </mxCell>
        <mxCell id="_-Ha9_vkT18k_ubbxbn1-36" value="2020-01" style="html=1;whiteSpace=wrap;rounded=1;arcSize=50;" parent="1" vertex="1">
          <mxGeometry x="1160" y="660" width="110" height="50" as="geometry" />
        </mxCell>
        <mxCell id="_-Ha9_vkT18k_ubbxbn1-41" value="Destruction of F" style="swimlane;fontStyle=0;childLayout=stackLayout;horizontal=1;startSize=26;strokeColor=#FFFAA0;strokeWidth=3;fillColor=none;horizontalStack=0;resizeParent=1;resizeParentMax=0;resizeLast=0;collapsible=1;marginBottom=0;whiteSpace=wrap;html=1;" parent="1" vertex="1">
          <mxGeometry x="1460" y="308" width="140" height="52" as="geometry" />
        </mxCell>
        <mxCell id="_-Ha9_vkT18k_ubbxbn1-42" value="Activity" style="text;strokeColor=#FFFAA0;strokeWidth=3;fillColor=none;align=center;verticalAlign=top;spacingLeft=4;spacingRight=4;overflow=hidden;rotatable=0;points=[[0,0.5],[1,0.5]];portConstraint=eastwest;whiteSpace=wrap;html=1;" parent="_-Ha9_vkT18k_ubbxbn1-41" vertex="1">
          <mxGeometry y="26" width="140" height="26" as="geometry" />
        </mxCell>
        <mxCell id="_-Ha9_vkT18k_ubbxbn1-43" value="" style="endArrow=classic;html=1;rounded=0;exitX=1;exitY=0.25;exitDx=0;exitDy=0;entryX=-0.016;entryY=-0.041;entryDx=0;entryDy=0;entryPerimeter=0;" parent="1" source="_-Ha9_vkT18k_ubbxbn1-20" target="_-Ha9_vkT18k_ubbxbn1-42" edge="1">
          <mxGeometry relative="1" as="geometry">
            <mxPoint x="930" y="274" as="sourcePoint" />
            <mxPoint x="1126" y="342" as="targetPoint" />
          </mxGeometry>
        </mxCell>
        <mxCell id="_-Ha9_vkT18k_ubbxbn1-44" value="results or resulted in" style="edgeLabel;resizable=0;html=1;;align=center;verticalAlign=middle;" parent="_-Ha9_vkT18k_ubbxbn1-43" connectable="0" vertex="1">
          <mxGeometry relative="1" as="geometry" />
        </mxCell>
        <mxCell id="_-Ha9_vkT18k_ubbxbn1-45" value="Outcomes of appraisal must be logged in Flanders governmental register&amp;nbsp;&amp;nbsp;" style="swimlane;fontStyle=0;childLayout=stackLayout;horizontal=1;startSize=40;strokeColor=#EAF1DD;strokeWidth=2;fillColor=none;horizontalStack=0;resizeParent=1;resizeParentMax=0;resizeLast=0;collapsible=1;marginBottom=0;whiteSpace=wrap;html=1;" parent="1" vertex="1">
          <mxGeometry x="1130" y="20" width="260" height="66" as="geometry" />
        </mxCell>
        <mxCell id="_-Ha9_vkT18k_ubbxbn1-46" value="Rule&lt;div&gt;&lt;br&gt;&lt;/div&gt;" style="text;strokeColor=#EAF1DD;strokeWidth=2;fillColor=#EAF1DD;align=center;verticalAlign=top;spacingLeft=4;spacingRight=4;overflow=hidden;rotatable=0;points=[[0,0.5],[1,0.5]];portConstraint=eastwest;whiteSpace=wrap;html=1;" parent="_-Ha9_vkT18k_ubbxbn1-45" vertex="1">
          <mxGeometry y="40" width="260" height="26" as="geometry" />
        </mxCell>
        <mxCell id="_-Ha9_vkT18k_ubbxbn1-47" value="" style="endArrow=classic;html=1;rounded=0;entryX=1.011;entryY=0;entryDx=0;entryDy=0;entryPerimeter=0;exitX=0;exitY=0.5;exitDx=0;exitDy=0;" parent="1" source="_-Ha9_vkT18k_ubbxbn1-45" target="_-Ha9_vkT18k_ubbxbn1-17" edge="1">
          <mxGeometry relative="1" as="geometry">
            <mxPoint x="1050" y="190" as="sourcePoint" />
            <mxPoint x="1240" y="190" as="targetPoint" />
          </mxGeometry>
        </mxCell>
        <mxCell id="_-Ha9_vkT18k_ubbxbn1-48" value="regulates or regulated" style="edgeLabel;resizable=0;html=1;;align=center;verticalAlign=middle;" parent="_-Ha9_vkT18k_ubbxbn1-47" connectable="0" vertex="1">
          <mxGeometry relative="1" as="geometry" />
        </mxCell>
        <mxCell id="_-Ha9_vkT18k_ubbxbn1-50" value="" style="endArrow=classic;html=1;rounded=0;exitX=0.007;exitY=1.077;exitDx=0;exitDy=0;exitPerimeter=0;entryX=1;entryY=0;entryDx=0;entryDy=0;" parent="1" source="_-Ha9_vkT18k_ubbxbn1-42" target="_-Ha9_vkT18k_ubbxbn1-26" edge="1">
          <mxGeometry relative="1" as="geometry">
            <mxPoint x="1110" y="320.0000000000002" as="sourcePoint" />
            <mxPoint x="1290" y="320" as="targetPoint" />
          </mxGeometry>
        </mxCell>
        <mxCell id="_-Ha9_vkT18k_ubbxbn1-51" value="occurred at date" style="edgeLabel;resizable=0;html=1;;align=center;verticalAlign=middle;" parent="_-Ha9_vkT18k_ubbxbn1-50" connectable="0" vertex="1">
          <mxGeometry relative="1" as="geometry" />
        </mxCell>
        <mxCell id="_-Ha9_vkT18k_ubbxbn1-52" value="" style="endArrow=classic;html=1;rounded=0;exitX=1;exitY=0;exitDx=0;exitDy=0;" parent="1" source="_-Ha9_vkT18k_ubbxbn1-20" target="_-Ha9_vkT18k_ubbxbn1-54" edge="1">
          <mxGeometry relative="1" as="geometry">
            <mxPoint x="950" y="260" as="sourcePoint" />
            <mxPoint x="1430" y="200" as="targetPoint" />
          </mxGeometry>
        </mxCell>
        <mxCell id="_-Ha9_vkT18k_ubbxbn1-53" value="results or resulted in" style="edgeLabel;resizable=0;html=1;;align=center;verticalAlign=middle;" parent="_-Ha9_vkT18k_ubbxbn1-52" connectable="0" vertex="1">
          <mxGeometry relative="1" as="geometry" />
        </mxCell>
        <mxCell id="_-Ha9_vkT18k_ubbxbn1-54" value="Logging of future destruction of F in Flanders governmental register" style="swimlane;fontStyle=0;childLayout=stackLayout;horizontal=1;startSize=38;strokeColor=#FFFAA0;strokeWidth=3;fillColor=none;horizontalStack=0;resizeParent=1;resizeParentMax=0;resizeLast=0;collapsible=1;marginBottom=0;whiteSpace=wrap;html=1;" parent="1" vertex="1">
          <mxGeometry x="1480" y="172" width="215" height="64" as="geometry" />
        </mxCell>
        <mxCell id="_-Ha9_vkT18k_ubbxbn1-55" value="Activity" style="text;strokeColor=#FFFAA0;strokeWidth=3;fillColor=none;align=center;verticalAlign=top;spacingLeft=4;spacingRight=4;overflow=hidden;rotatable=0;points=[[0,0.5],[1,0.5]];portConstraint=eastwest;whiteSpace=wrap;html=1;" parent="_-Ha9_vkT18k_ubbxbn1-54" vertex="1">
          <mxGeometry y="38" width="215" height="26" as="geometry" />
        </mxCell>
        <mxCell id="_-Ha9_vkT18k_ubbxbn1-58" value="Flanders governmental register" style="swimlane;fontStyle=0;childLayout=stackLayout;horizontal=1;startSize=26;strokeColor=#DAEEF3;strokeWidth=3;fillColor=none;horizontalStack=0;resizeParent=1;resizeParentMax=0;resizeLast=0;collapsible=1;marginBottom=0;whiteSpace=wrap;html=1;" parent="1" vertex="1">
          <mxGeometry x="1790" y="342" width="205" height="52" as="geometry" />
        </mxCell>
        <mxCell id="_-Ha9_vkT18k_ubbxbn1-59" value="Record Set" style="text;strokeColor=#DAEEF3;strokeWidth=3;fillColor=none;align=center;verticalAlign=top;spacingLeft=4;spacingRight=4;overflow=hidden;rotatable=0;points=[[0,0.5],[1,0.5]];portConstraint=eastwest;whiteSpace=wrap;html=1;" parent="_-Ha9_vkT18k_ubbxbn1-58" vertex="1">
          <mxGeometry y="26" width="205" height="26" as="geometry" />
        </mxCell>
        <mxCell id="_-Ha9_vkT18k_ubbxbn1-60" value="" style="endArrow=classic;html=1;rounded=0;entryX=0.611;entryY=-0.058;entryDx=0;entryDy=0;entryPerimeter=0;" parent="1" source="_-Ha9_vkT18k_ubbxbn1-59" target="_-Ha9_vkT18k_ubbxbn1-64" edge="1">
          <mxGeometry relative="1" as="geometry">
            <mxPoint x="1490" y="470" as="sourcePoint" />
            <mxPoint x="1752.7707006369428" y="484" as="targetPoint" />
          </mxGeometry>
        </mxCell>
        <mxCell id="_-Ha9_vkT18k_ubbxbn1-61" value="expresses or expressed" style="edgeLabel;resizable=0;html=1;;align=center;verticalAlign=middle;" parent="_-Ha9_vkT18k_ubbxbn1-60" connectable="0" vertex="1">
          <mxGeometry relative="1" as="geometry" />
        </mxCell>
        <mxCell id="_-Ha9_vkT18k_ubbxbn1-64" value="Authorisation for destruction" style="swimlane;fontStyle=0;childLayout=stackLayout;horizontal=1;startSize=26;strokeColor=#EAF1DD;strokeWidth=3;fillColor=none;horizontalStack=0;resizeParent=1;resizeParentMax=0;resizeLast=0;collapsible=1;marginBottom=0;whiteSpace=wrap;html=1;" parent="1" vertex="1">
          <mxGeometry x="1630" y="560" width="190" height="52" as="geometry" />
        </mxCell>
        <mxCell id="_-Ha9_vkT18k_ubbxbn1-65" value="Mandate&lt;div&gt;&lt;br&gt;&lt;/div&gt;" style="text;strokeColor=#EAF1DD;strokeWidth=3;strokeColor=none;fillColor=none;align=center;verticalAlign=top;spacingLeft=4;spacingRight=4;overflow=hidden;rotatable=0;points=[[0,0.5],[1,0.5]];portConstraint=eastwest;whiteSpace=wrap;html=1;" parent="_-Ha9_vkT18k_ubbxbn1-64" vertex="1">
          <mxGeometry y="26" width="190" height="26" as="geometry" />
        </mxCell>
        <mxCell id="_-Ha9_vkT18k_ubbxbn1-66" value="" style="endArrow=classic;html=1;rounded=0;exitX=0.463;exitY=1.115;exitDx=0;exitDy=0;exitPerimeter=0;entryX=1;entryY=0.5;entryDx=0;entryDy=0;" parent="1" source="_-Ha9_vkT18k_ubbxbn1-65" target="_-Ha9_vkT18k_ubbxbn1-68" edge="1">
          <mxGeometry relative="1" as="geometry">
            <mxPoint x="1400" y="400" as="sourcePoint" />
            <mxPoint x="1390" y="720" as="targetPoint" />
          </mxGeometry>
        </mxCell>
        <mxCell id="_-Ha9_vkT18k_ubbxbn1-67" value="authorizes" style="edgeLabel;resizable=0;html=1;;align=center;verticalAlign=middle;" parent="_-Ha9_vkT18k_ubbxbn1-66" connectable="0" vertex="1">
          <mxGeometry relative="1" as="geometry" />
        </mxCell>
        <mxCell id="_-Ha9_vkT18k_ubbxbn1-68" value="Regional records management organisation" style="swimlane;fontStyle=0;childLayout=stackLayout;horizontal=1;startSize=26;strokeColor=#C6D9F1;strokeWidth=3;fillColor=none;horizontalStack=0;resizeParent=1;resizeParentMax=0;resizeLast=0;collapsible=1;marginBottom=0;whiteSpace=wrap;html=1;" parent="1" vertex="1">
          <mxGeometry x="1080" y="770" width="260" height="52" as="geometry" />
        </mxCell>
        <mxCell id="_-Ha9_vkT18k_ubbxbn1-69" value="Corporate Body" style="text;strokeColor=#C6D9F1;strokeWidth=3;fillColor=none;align=center;verticalAlign=top;spacingLeft=4;spacingRight=4;overflow=hidden;rotatable=0;points=[[0,0.5],[1,0.5]];portConstraint=eastwest;whiteSpace=wrap;html=1;" parent="_-Ha9_vkT18k_ubbxbn1-68" vertex="1">
          <mxGeometry y="26" width="260" height="26" as="geometry" />
        </mxCell>
        <mxCell id="_-Ha9_vkT18k_ubbxbn1-70" value="" style="endArrow=classic;html=1;rounded=0;entryX=0.518;entryY=1.154;entryDx=0;entryDy=0;entryPerimeter=0;exitX=-0.014;exitY=0.077;exitDx=0;exitDy=0;exitPerimeter=0;" parent="1" source="_-Ha9_vkT18k_ubbxbn1-69" target="_-Ha9_vkT18k_ubbxbn1-10" edge="1">
          <mxGeometry relative="1" as="geometry">
            <mxPoint x="800" y="770" as="sourcePoint" />
            <mxPoint x="990" y="770" as="targetPoint" />
          </mxGeometry>
        </mxCell>
        <mxCell id="_-Ha9_vkT18k_ubbxbn1-71" value="is or was manager of" style="edgeLabel;resizable=0;html=1;;align=center;verticalAlign=middle;" parent="_-Ha9_vkT18k_ubbxbn1-70" connectable="0" vertex="1">
          <mxGeometry relative="1" as="geometry" />
        </mxCell>
        <mxCell id="_-Ha9_vkT18k_ubbxbn1-72" value="" style="endArrow=classic;html=1;rounded=0;entryX=0.5;entryY=0;entryDx=0;entryDy=0;" parent="1" target="_-Ha9_vkT18k_ubbxbn1-54" edge="1">
          <mxGeometry relative="1" as="geometry">
            <mxPoint x="1391" y="53" as="sourcePoint" />
            <mxPoint x="1040" y="226" as="targetPoint" />
          </mxGeometry>
        </mxCell>
        <mxCell id="_-Ha9_vkT18k_ubbxbn1-73" value="regulates or regulated" style="edgeLabel;resizable=0;html=1;;align=center;verticalAlign=middle;" parent="_-Ha9_vkT18k_ubbxbn1-72" connectable="0" vertex="1">
          <mxGeometry relative="1" as="geometry" />
        </mxCell>
        <mxCell id="_-Ha9_vkT18k_ubbxbn1-74" value="" style="endArrow=classic;html=1;rounded=0;exitX=1;exitY=0.25;exitDx=0;exitDy=0;entryX=0;entryY=0.25;entryDx=0;entryDy=0;" parent="1" source="_-Ha9_vkT18k_ubbxbn1-54" edge="1" target="_-Ha9_vkT18k_ubbxbn1-76">
          <mxGeometry relative="1" as="geometry">
            <mxPoint x="1620" y="193" as="sourcePoint" />
            <mxPoint x="1860" y="187" as="targetPoint" />
          </mxGeometry>
        </mxCell>
        <mxCell id="_-Ha9_vkT18k_ubbxbn1-75" value="affects or affected" style="edgeLabel;resizable=0;html=1;;align=center;verticalAlign=middle;" parent="_-Ha9_vkT18k_ubbxbn1-74" connectable="0" vertex="1">
          <mxGeometry relative="1" as="geometry" />
        </mxCell>
        <mxCell id="_-Ha9_vkT18k_ubbxbn1-76" value="Entry for R in Flanders governmental register" style="swimlane;fontStyle=0;childLayout=stackLayout;horizontal=1;startSize=38;strokeColor=#DAEEF3;strokeWidth=3;fillColor=none;horizontalStack=0;resizeParent=1;resizeParentMax=0;resizeLast=0;collapsible=1;marginBottom=0;whiteSpace=wrap;html=1;" parent="1" vertex="1">
          <mxGeometry x="1910" y="172" width="180" height="60" as="geometry" />
        </mxCell>
        <mxCell id="_-Ha9_vkT18k_ubbxbn1-77" value="Record" style="text;strokeColor=#DAEEF3;strokeWidth=3;fillColor=none;align=center;verticalAlign=top;spacingLeft=4;spacingRight=4;overflow=hidden;rotatable=0;points=[[0,0.5],[1,0.5]];portConstraint=eastwest;whiteSpace=wrap;html=1;" parent="_-Ha9_vkT18k_ubbxbn1-76" vertex="1">
          <mxGeometry y="38" width="180" height="22" as="geometry" />
        </mxCell>
        <mxCell id="_-Ha9_vkT18k_ubbxbn1-78" value="" style="endArrow=classic;html=1;rounded=0;entryX=0.643;entryY=0.025;entryDx=0;entryDy=0;entryPerimeter=0;" parent="1" source="_-Ha9_vkT18k_ubbxbn1-77" target="_-Ha9_vkT18k_ubbxbn1-58" edge="1">
          <mxGeometry relative="1" as="geometry">
            <mxPoint x="1890" y="280" as="sourcePoint" />
            <mxPoint x="2090" y="280" as="targetPoint" />
          </mxGeometry>
        </mxCell>
        <mxCell id="_-Ha9_vkT18k_ubbxbn1-79" value="is or was included in" style="edgeLabel;resizable=0;html=1;;align=center;verticalAlign=middle;" parent="_-Ha9_vkT18k_ubbxbn1-78" connectable="0" vertex="1">
          <mxGeometry relative="1" as="geometry" />
        </mxCell>
        <mxCell id="_-Ha9_vkT18k_ubbxbn1-80" value="" style="endArrow=classic;html=1;rounded=0;entryX=0.632;entryY=0.955;entryDx=0;entryDy=0;entryPerimeter=0;" parent="1" source="_-Ha9_vkT18k_ubbxbn1-64" target="_-Ha9_vkT18k_ubbxbn1-42" edge="1">
          <mxGeometry relative="1" as="geometry">
            <mxPoint x="1530" y="508.82" as="sourcePoint" />
            <mxPoint x="1790" y="508.82" as="targetPoint" />
          </mxGeometry>
        </mxCell>
        <mxCell id="_-Ha9_vkT18k_ubbxbn1-81" value="regulates or regulated" style="edgeLabel;resizable=0;html=1;;align=center;verticalAlign=middle;" parent="_-Ha9_vkT18k_ubbxbn1-80" connectable="0" vertex="1">
          <mxGeometry relative="1" as="geometry" />
        </mxCell>
        <mxCell id="_-Ha9_vkT18k_ubbxbn1-82" value="" style="endArrow=classic;html=1;rounded=0;exitX=0.923;exitY=-0.034;exitDx=0;exitDy=0;exitPerimeter=0;entryX=0.429;entryY=1;entryDx=0;entryDy=0;entryPerimeter=0;" parent="1" source="_-Ha9_vkT18k_ubbxbn1-68" target="_-Ha9_vkT18k_ubbxbn1-42" edge="1">
          <mxGeometry relative="1" as="geometry">
            <mxPoint x="1290" y="720" as="sourcePoint" />
            <mxPoint x="1480" y="720" as="targetPoint" />
          </mxGeometry>
        </mxCell>
        <mxCell id="_-Ha9_vkT18k_ubbxbn1-83" value="performs or performed" style="edgeLabel;resizable=0;html=1;;align=center;verticalAlign=middle;" parent="_-Ha9_vkT18k_ubbxbn1-82" connectable="0" vertex="1">
          <mxGeometry relative="1" as="geometry" />
        </mxCell>
        <mxCell id="_Zkpg5hdJGn9ATb1nhUD-1" value="Series" style="html=1;whiteSpace=wrap;rounded=1;arcSize=50;" vertex="1" parent="1">
          <mxGeometry x="240" y="360" width="110" height="50" as="geometry" />
        </mxCell>
        <mxCell id="_Zkpg5hdJGn9ATb1nhUD-2" value="File" style="html=1;whiteSpace=wrap;rounded=1;arcSize=50;" vertex="1" parent="1">
          <mxGeometry x="240.00000000000023" y="509.99799999999976" width="110" height="50" as="geometry" />
        </mxCell>
        <mxCell id="_Zkpg5hdJGn9ATb1nhUD-3" value="2030-01" style="html=1;whiteSpace=wrap;rounded=1;arcSize=50;" vertex="1" parent="1">
          <mxGeometry x="1220" y="550" width="110" height="50" as="geometry" />
        </mxCell>
        <mxCell id="_Zkpg5hdJGn9ATb1nhUD-4" value="" style="endArrow=classic;html=1;rounded=0;entryX=0;entryY=0.5;entryDx=0;entryDy=0;exitX=0.414;exitY=1.077;exitDx=0;exitDy=0;exitPerimeter=0;" edge="1" parent="1" source="_-Ha9_vkT18k_ubbxbn1-27" target="_Zkpg5hdJGn9ATb1nhUD-3">
          <mxGeometry relative="1" as="geometry">
            <mxPoint x="1010" y="530" as="sourcePoint" />
            <mxPoint x="1190" y="581" as="targetPoint" />
          </mxGeometry>
        </mxCell>
        <mxCell id="_Zkpg5hdJGn9ATb1nhUD-5" value="normalized date value" style="edgeLabel;resizable=0;html=1;;align=center;verticalAlign=middle;" connectable="0" vertex="1" parent="_Zkpg5hdJGn9ATb1nhUD-4">
          <mxGeometry relative="1" as="geometry" />
        </mxCell>
        <mxCell id="_Zkpg5hdJGn9ATb1nhUD-6" value="" style="endArrow=classic;html=1;rounded=0;exitX=0;exitY=0.5;exitDx=0;exitDy=0;curved=1;entryX=0;entryY=0.25;entryDx=0;entryDy=0;" edge="1" parent="1" source="_-Ha9_vkT18k_ubbxbn1-69" target="_-Ha9_vkT18k_ubbxbn1-20">
          <mxGeometry relative="1" as="geometry">
            <mxPoint x="980" y="820" as="sourcePoint" />
            <mxPoint x="440" y="190" as="targetPoint" />
            <Array as="points">
              <mxPoint x="230" y="890" />
              <mxPoint x="40" y="220" />
            </Array>
          </mxGeometry>
        </mxCell>
        <mxCell id="_Zkpg5hdJGn9ATb1nhUD-7" value="performs or performed" style="edgeLabel;resizable=0;html=1;;align=center;verticalAlign=middle;" connectable="0" vertex="1" parent="_Zkpg5hdJGn9ATb1nhUD-6">
          <mxGeometry relative="1" as="geometry" />
        </mxCell>
        <mxCell id="_Zkpg5hdJGn9ATb1nhUD-8" value="" style="endArrow=classic;html=1;rounded=0;exitX=1;exitY=0.5;exitDx=0;exitDy=0;curved=1;entryX=1;entryY=0;entryDx=0;entryDy=0;" edge="1" parent="1" source="_-Ha9_vkT18k_ubbxbn1-69" target="_-Ha9_vkT18k_ubbxbn1-54">
          <mxGeometry relative="1" as="geometry">
            <mxPoint x="1770" y="938" as="sourcePoint" />
            <mxPoint x="1940" y="50" as="targetPoint" />
            <Array as="points">
              <mxPoint x="2100" y="620" />
              <mxPoint x="2270" y="200" />
              <mxPoint x="2070" y="20" />
            </Array>
          </mxGeometry>
        </mxCell>
        <mxCell id="_Zkpg5hdJGn9ATb1nhUD-9" value="performs or performed" style="edgeLabel;resizable=0;html=1;;align=center;verticalAlign=middle;" connectable="0" vertex="1" parent="_Zkpg5hdJGn9ATb1nhUD-8">
          <mxGeometry relative="1" as="geometry">
            <mxPoint x="53" y="-179" as="offset" />
          </mxGeometry>
        </mxCell>
      </root>
    </mxGraphModel>
  </diagram>
</mxfile>
